<svg xmlns="http://www.w3.org/2000/svg" xmlns:xlink="http://www.w3.org/1999/xlink" width="500" zoomAndPan="magnify" viewBox="0 0 375 374.999991" height="500" preserveAspectRatio="xMidYMid meet" version="1.0"><defs><clipPath id="fc84b8665d"><path d="M 45.992188 3.726562 L 328.742188 3.726562 L 328.742188 371.226562 L 45.992188 371.226562 Z M 45.992188 3.726562 " clip-rule="nonzero"/></clipPath></defs><g clip-path="url(#fc84b8665d)"><path fill="#000000" d="M 312.910156 44.09375 L 252.515625 44.09375 L 220.675781 12.402344 C 220.167969 11.890625 219.660156 11.496094 219.148438 11.101562 C 214.117188 6.910156 206.257812 3.914062 200.035156 3.914062 L 61.828125 3.914062 C 53.121094 3.914062 45.992188 11.042969 45.992188 19.757812 L 45.992188 315.011719 C 45.992188 323.726562 53.121094 330.859375 61.828125 330.859375 L 79.925781 330.859375 L 79.925781 355.191406 C 79.925781 363.910156 87.050781 371.039062 95.757812 371.039062 L 312.910156 371.039062 C 321.617188 371.039062 328.742188 363.910156 328.742188 355.191406 L 328.742188 59.882812 C 328.742188 51.167969 321.617188 44.09375 312.910156 44.09375 Z M 215.871094 25.757812 L 272.757812 82.296875 L 218.8125 82.296875 C 217.171875 82.296875 215.8125 80.9375 215.8125 79.296875 L 215.8125 25.757812 Z M 58.832031 315.011719 L 58.832031 19.757812 C 58.832031 18.117188 60.1875 16.757812 61.828125 16.757812 L 200.035156 16.757812 C 200.996094 16.757812 202.070312 16.929688 203.203125 17.210938 C 203.089844 18.003906 203.035156 18.851562 203.035156 19.703125 L 203.035156 79.238281 C 203.035156 87.953125 210.160156 95.085938 218.867188 95.085938 L 278.980469 95.085938 C 279.886719 95.085938 280.734375 95.027344 281.46875 94.914062 C 281.75 96.046875 281.921875 97.125 281.921875 98.085938 L 281.921875 314.953125 C 281.921875 316.597656 280.5625 317.953125 278.921875 317.953125 L 61.828125 317.953125 C 60.1875 318.011719 58.832031 316.652344 58.832031 315.011719 Z M 315.90625 355.191406 C 315.90625 356.835938 314.550781 358.191406 312.910156 358.191406 L 95.757812 358.191406 C 94.117188 358.191406 92.761719 356.835938 92.761719 355.191406 L 92.761719 330.859375 L 278.980469 330.859375 C 287.6875 330.859375 294.8125 323.726562 294.8125 315.011719 L 294.8125 98.140625 C 294.8125 91.917969 291.816406 84.164062 287.632812 79.125 C 287.234375 78.617188 286.785156 78.109375 286.21875 77.542969 L 265.464844 56.941406 L 312.910156 56.941406 C 314.550781 56.941406 315.90625 58.300781 315.90625 59.941406 Z M 245.953125 143.132812 L 94.851562 143.132812 C 91.800781 143.132812 89.367188 140.644531 89.367188 137.644531 C 89.367188 134.644531 91.855469 132.15625 94.851562 132.15625 L 245.953125 132.15625 C 249.007812 132.15625 251.441406 134.644531 251.441406 137.644531 C 251.441406 140.644531 249.007812 143.132812 245.953125 143.132812 Z M 245.953125 183.316406 L 94.851562 183.316406 C 91.800781 183.316406 89.367188 180.828125 89.367188 177.828125 C 89.367188 174.828125 91.855469 172.335938 94.851562 172.335938 L 245.953125 172.335938 C 249.007812 172.335938 251.441406 174.828125 251.441406 177.828125 C 251.441406 180.828125 249.007812 183.316406 245.953125 183.316406 Z M 245.953125 223.441406 L 94.851562 223.441406 C 91.800781 223.441406 89.367188 220.953125 89.367188 217.953125 C 89.367188 214.953125 91.855469 212.460938 94.851562 212.460938 L 245.953125 212.460938 C 249.007812 212.460938 251.441406 214.953125 251.441406 217.953125 C 251.441406 220.953125 249.007812 223.441406 245.953125 223.441406 Z M 159.660156 263.625 L 94.851562 263.625 C 91.800781 263.625 89.367188 261.132812 89.367188 258.132812 C 89.367188 255.078125 91.855469 252.644531 94.851562 252.644531 L 159.660156 252.644531 C 162.714844 252.644531 165.144531 255.132812 165.144531 258.132812 C 165.144531 261.132812 162.714844 263.625 159.660156 263.625 Z M 159.660156 263.625 " fill-opacity="1" fill-rule="nonzero"/></g></svg>